<svg xmlns="http://www.w3.org/2000/svg" viewBox="0 0 100 110">
  <defs>
    <linearGradient id="cloak" x1="0" y1="0" x2="1" y2="1"><stop stop-color="#9bca75"/><stop offset=".55" stop-color="#44784b"/><stop offset="1" stop-color="#244735"/></linearGradient>
    <linearGradient id="leather" x1="0" y1="0" x2="1" y2="1"><stop stop-color="#b78957"/><stop offset="1" stop-color="#664431"/></linearGradient>
  </defs>
  <ellipse cx="50" cy="101" rx="30" ry="7" fill="#132d23" opacity=".22"/>
  <path d="M35 77 31 99 44 99 49 78M56 78 57 100 69 99 64 76" fill="#3c3c39" stroke="#26332d" stroke-width="3"/>
  <path d="M26 48 Q15 64 18 87 L38 97 50 89 64 97 83 85 Q83 62 72 45Z" fill="url(#cloak)" stroke="#294a35" stroke-width="3"/>
  <path d="M31 47 46 52 53 88 40 92 26 81Z" fill="#a5cf78" opacity=".7"/>
  <path d="M32 49 Q50 39 69 50 L66 79 Q50 88 34 78Z" fill="url(#leather)" stroke="#503b2e" stroke-width="3"/>
  <path d="M33 74 Q51 81 67 73" fill="none" stroke="#402e26" stroke-width="8"/>
  <rect x="47" y="72" width="11" height="8" rx="2" fill="#e1bd72" stroke="#74522e" stroke-width="2"/>
  <path d="M31 51 Q21 51 18 66 L21 76 29 77 36 62Z M69 51 Q80 53 82 68 L78 77 70 75 64 61Z" fill="#d7b58c" stroke="#564634" stroke-width="3"/>
  <path d="M30 42 Q28 15 50 15 Q72 15 70 42 L65 56 49 62 35 55Z" fill="#dcb18a" stroke="#6d4c39" stroke-width="3"/>
  <path d="M27 36 Q25 10 49 9 Q70 8 75 32 L68 29 63 21 47 25 33 29Z" fill="#2a302b"/>
  <path d="M31 32 35 20 47 14 57 15 68 22 71 36 63 31 54 25 41 33Z" fill="#455b41" stroke="#26362d" stroke-width="3"/>
  <path d="M28 33 Q49 46 72 33" fill="none" stroke="#b4d789" stroke-width="4"/>
  <circle cx="42" cy="43" r="2.3" fill="#263b31"/><circle cx="59" cy="43" r="2.3" fill="#263b31"/>
  <path d="M47 53 Q51 55 55 52" fill="none" stroke="#a46358" stroke-width="2" stroke-linecap="round"/>
  <path d="M34 56 Q48 66 67 57 L63 67 Q51 73 36 64Z" fill="#c4564c" stroke="#8c3a38" stroke-width="2"/>
</svg>
